<?xml version="1.0" standalone="no"?>
<!DOCTYPE svg PUBLIC "-//W3C//DTD SVG 20010904//EN"
 "http://www.w3.org/TR/2001/REC-SVG-20010904/DTD/svg10.dtd">
<svg version="1.0" xmlns="http://www.w3.org/2000/svg"
 width="300.000000pt" height="300.000000pt" viewBox="0 0 300.000000 300.000000"
 preserveAspectRatio="xMidYMid meet">
<metadata>
Created by potrace 1.14, written by Peter Selinger 2001-2017
</metadata>
<g transform="translate(0.000000,300.000000) scale(0.100000,-0.100000)"
fill="#000000" stroke="none">
<path d="M1525 2922 c6 -19 3 -23 -12 -22 -36 4 -45 0 -39 -16 5 -14 4 -15 -9
-4 -8 7 -13 16 -10 19 2 4 -2 8 -10 8 -11 0 -12 -4 -4 -13 7 -8 7 -14 -1 -19
-6 -3 -8 -11 -5 -16 4 -5 1 -9 -4 -9 -14 0 -14 13 0 27 7 7 6 12 -4 16 -7 3
-14 -1 -15 -9 -1 -8 -3 -20 -4 -27 -1 -8 -11 -12 -28 -9 -18 3 -29 -1 -33 -12
-6 -14 -3 -15 14 -5 17 9 24 8 38 -7 15 -17 15 -17 -1 -5 -17 13 -52 2 -71
-23 -6 -7 -7 -5 -4 4 3 11 -2 16 -17 17 -11 0 -15 -1 -8 -4 15 -6 16 -33 1
-33 -5 0 -7 5 -4 10 3 6 -1 10 -9 10 -20 0 -17 -22 4 -33 10 -5 7 -6 -8 -3
-20 4 -23 1 -19 -15 3 -10 2 -17 -3 -14 -4 3 -10 14 -13 25 -3 11 -1 18 4 14
5 -3 9 0 9 5 0 6 -7 11 -16 11 -11 0 -14 -6 -9 -21 6 -17 4 -20 -6 -13 -23 14
-37 13 -51 -4 -10 -12 -10 -14 0 -8 6 4 12 2 12 -3 0 -6 5 -11 11 -11 5 0 8 4
4 9 -3 5 0 13 6 17 8 4 9 3 5 -4 -4 -7 -1 -12 6 -12 8 0 6 -5 -5 -11 -9 -5
-22 -7 -29 -3 -8 5 -9 1 -5 -12 7 -18 7 -18 -8 0 -14 18 -19 13 -17 -14 0 -3
-9 -7 -21 -7 -21 -2 -21 -1 -3 12 10 8 16 20 13 27 -4 11 -6 11 -6 0 -1 -7 -6
-10 -13 -6 -6 4 -8 3 -4 -4 3 -6 2 -14 -4 -17 -8 -5 -7 -11 1 -21 7 -8 7 -14
1 -14 -14 0 -23 26 -16 48 3 9 -2 4 -11 -11 -9 -15 -20 -25 -25 -22 -5 3 -7
-9 -5 -27 2 -18 1 -27 -2 -20 -2 6 -9 10 -14 7 -5 -3 -18 -1 -30 6 -15 8 -19
8 -15 0 7 -10 -5 -15 -31 -12 -17 2 -25 -16 -12 -25 8 -5 9 -3 4 6 -5 8 -3 11
6 8 8 -3 22 -1 31 4 14 6 16 5 12 -7 -3 -8 -11 -12 -17 -8 -6 4 -8 0 -4 -11 5
-12 3 -15 -5 -10 -7 4 -22 9 -34 10 -18 2 -21 -1 -17 -14 6 -14 4 -15 -9 -4
-13 10 -19 10 -31 -2 -8 -8 -18 -12 -22 -8 -5 4 -5 1 -1 -6 5 -9 12 -10 20 -3
6 5 18 6 25 2 9 -6 10 -11 2 -15 -6 -4 -11 -2 -11 4 0 6 -13 2 -30 -10 -16
-12 -30 -18 -30 -14 0 3 -8 0 -17 -7 -15 -11 -16 -11 -5 1 6 8 12 21 11 30 0
9 -4 6 -10 -8 -5 -13 -13 -20 -19 -17 -6 4 -7 12 -3 18 4 7 -2 5 -13 -3 -29
-22 -30 -24 -12 -17 22 8 33 -9 19 -27 -6 -7 -8 -16 -4 -20 4 -4 -1 -4 -11 0
-15 6 -17 4 -11 -7 7 -12 6 -12 -7 -1 -13 10 -17 10 -21 -3 -5 -11 -12 -13
-31 -5 -20 7 -24 6 -20 -5 3 -8 11 -13 16 -12 6 1 13 -5 15 -13 4 -12 3 -12
-5 -2 -5 8 -13 14 -17 14 -4 0 -12 -6 -17 -14 -7 -10 -8 -10 -6 2 2 8 -1 16
-7 18 -5 1 -10 -9 -11 -23 -1 -25 -14 -49 -14 -26 0 7 -5 9 -12 5 -7 -4 -8 -3
-4 5 4 6 12 8 18 5 6 -4 6 2 -1 15 -14 25 -23 28 -14 4 4 -11 3 -14 -6 -9 -6
4 -11 4 -10 -1 1 -4 1 -16 0 -26 -1 -15 -4 -16 -22 -6 -25 13 -41 -3 -31 -30
3 -9 2 -13 -3 -9 -4 4 -14 3 -22 -3 -7 -7 -23 -12 -35 -13 -12 0 -23 -7 -26
-14 -2 -7 2 -10 11 -6 8 3 18 1 21 -4 3 -5 -7 -8 -24 -6 -24 3 -28 0 -24 -14
5 -14 4 -14 -4 -2 -8 10 -8 18 0 27 7 9 7 13 0 13 -12 0 -24 -29 -17 -41 4 -5
-1 -6 -10 -3 -12 5 -14 2 -8 -12 6 -16 5 -17 -9 -4 -15 13 -15 16 -2 27 9 6
11 14 6 17 -6 3 -13 -1 -16 -10 -3 -8 -10 -12 -16 -9 -6 3 -7 -1 -4 -9 3 -9 1
-16 -5 -16 -6 0 -11 5 -11 11 0 7 -9 0 -20 -14 -11 -14 -20 -30 -20 -37 0 -6
-5 -8 -11 -5 -7 5 -5 16 6 33 l16 27 -20 -23 c-17 -20 -19 -28 -9 -45 11 -22
10 -22 -10 -4 -15 14 -22 15 -28 6 -4 -7 -3 -10 3 -6 6 4 14 0 17 -9 4 -11 2
-15 -8 -11 -10 4 -12 0 -8 -15 4 -15 7 -17 13 -6 5 7 9 8 9 2 0 -6 -3 -14 -7
-18 -13 -13 -10 -47 4 -42 8 4 11 1 8 -5 -4 -6 -13 -8 -21 -5 -13 5 -18 -6
-15 -26 2 -12 -13 -9 -30 4 -7 7 -7 4 3 -6 15 -17 44 -14 34 3 -3 4 2 8 10 8
10 0 11 -4 4 -11 -16 -16 -12 -26 7 -20 14 4 15 3 5 -4 -16 -11 -15 -21 1 -41
10 -12 9 -12 -10 0 -13 8 -23 17 -23 22 0 4 5 5 12 1 7 -4 8 -3 4 4 -5 9 -13
9 -27 2 -22 -12 -25 -21 -6 -17 7 1 12 -10 13 -30 0 -21 9 -39 25 -53 13 -12
19 -19 13 -16 -19 9 -24 -20 -8 -42 10 -15 11 -23 3 -28 -8 -4 -9 -3 -5 5 4 6
1 14 -8 17 -14 5 -14 32 -1 54 3 6 0 10 -7 10 -9 0 -13 -11 -13 -32 1 -18 -3
-40 -9 -48 -10 -13 -9 -13 8 0 15 11 18 11 12 1 -5 -8 -3 -17 5 -23 11 -8 10
-9 -4 -4 -9 3 -17 1 -17 -4 0 -6 10 -11 23 -11 16 -1 18 -2 5 -6 -16 -4 -17
-7 -2 -36 15 -31 15 -32 -3 -10 l-18 23 0 -24 c0 -13 3 -22 8 -19 13 8 7 -15
-9 -31 -10 -10 -11 -16 -3 -16 8 0 8 -5 -2 -17 -13 -16 -12 -17 3 -4 11 8 18
9 18 3 0 -6 -8 -16 -18 -21 -9 -6 -12 -11 -6 -11 12 0 12 -49 -1 -69 -5 -9 -4
-12 2 -8 6 4 14 0 17 -9 3 -8 2 -13 -2 -10 -4 2 -14 0 -22 -6 -12 -8 -12 -9 3
-4 11 3 24 -2 34 -14 24 -27 24 -46 1 -47 -19 -2 -19 -1 -2 11 17 13 16 14 -5
25 -13 7 -25 10 -29 7 -3 -3 0 -6 7 -6 8 0 11 -8 8 -20 -3 -12 1 -24 11 -30
16 -9 16 -9 1 -10 -9 0 -20 -7 -23 -16 -3 -8 -2 -12 4 -9 6 3 10 1 10 -4 0 -6
-6 -11 -12 -11 -9 0 -9 -3 -3 -8 10 -6 11 -15 6 -39 -1 -5 -6 -1 -11 7 -5 8
-10 10 -10 4 0 -6 8 -19 19 -28 18 -16 19 -16 16 13 -1 16 3 32 10 34 6 3 12
-1 12 -9 0 -8 -3 -14 -6 -14 -3 0 -7 -19 -7 -42 -1 -23 -6 -44 -12 -46 -14 -4
-4 -32 11 -28 7 1 9 1 4 -1 -4 -3 -5 -9 -2 -13 3 -5 0 -12 -6 -16 -8 -5 -9 -3
-4 6 5 9 4 11 -3 6 -7 -4 -12 -2 -12 5 0 7 -3 9 -6 6 -4 -4 -2 -13 5 -21 9
-11 9 -15 -1 -19 -9 -4 -9 -6 2 -7 10 0 6 -6 -10 -16 -14 -8 -18 -13 -8 -10
22 7 30 -4 15 -22 -9 -13 -9 -14 0 -8 8 4 13 1 13 -9 0 -9 -4 -14 -8 -11 -5 3
-9 -1 -9 -9 0 -8 3 -12 7 -10 3 2 11 -5 18 -15 9 -14 9 -21 0 -26 -7 -5 -8 -3
-3 6 5 8 4 11 -2 7 -5 -3 -8 -20 -7 -37 2 -33 21 -63 34 -55 5 3 11 1 15 -4 3
-6 -3 -8 -13 -6 -9 1 -26 -3 -37 -11 -10 -8 -13 -14 -6 -14 7 0 9 -4 6 -10 -3
-5 0 -10 9 -10 18 0 15 -28 -5 -40 -8 -5 -14 -26 -14 -49 0 -22 4 -37 8 -34 5
3 6 -5 2 -18 -5 -18 -4 -20 4 -9 8 12 13 12 30 -4 11 -10 24 -15 30 -11 7 4 8
0 4 -11 -4 -10 -2 -15 4 -11 5 3 10 -1 10 -9 0 -10 -8 -7 -26 10 -19 18 -30
23 -41 16 -12 -8 -11 -10 7 -10 25 0 39 -16 21 -24 -7 -3 -4 -4 7 -3 15 1 19
-3 17 -18 -2 -12 0 -16 5 -9 12 17 53 28 53 14 0 -6 -6 -8 -12 -4 -10 5 -10 3
0 -7 11 -12 14 -12 22 1 6 9 10 10 10 3 0 -6 9 -15 20 -18 11 -3 20 -11 20
-16 0 -5 -11 -2 -25 7 -14 9 -25 15 -26 13 -6 -29 -5 -36 7 -36 7 0 10 5 7 10
-3 5 0 7 8 5 8 -3 13 -11 11 -18 -2 -11 0 -11 12 -1 9 7 17 8 20 2 3 -5 1 -11
-6 -13 -7 -3 -5 -7 6 -11 10 -4 15 -3 11 3 -3 6 2 10 12 10 17 1 17 2 -1 15
-11 8 -15 15 -10 15 12 0 74 -56 74 -67 0 -4 -7 0 -15 11 -14 18 -14 18 -12
-1 1 -16 8 -19 34 -17 18 1 36 -2 39 -8 3 -5 13 -4 22 4 16 12 16 11 2 -6 -14
-18 -13 -18 10 -12 14 4 21 4 15 -1 -14 -11 -18 -43 -5 -43 5 0 10 7 10 15 0
8 4 15 10 15 5 0 7 -6 4 -14 -3 -8 0 -17 7 -22 8 -4 10 -3 5 4 -5 8 -1 10 10
5 13 -5 15 -3 9 8 -5 8 -5 11 1 6 5 -5 9 -14 9 -20 0 -7 6 -13 13 -13 6 -1 15
-3 20 -4 4 -1 11 -2 15 -1 5 1 6 -3 2 -9 -3 -5 0 -10 9 -10 8 0 17 6 20 13 2
6 4 1 3 -13 -1 -17 3 -24 12 -22 12 3 12 0 1 -13 -7 -8 -10 -18 -6 -22 3 -3 6
-1 6 5 0 7 15 11 37 10 21 -1 32 -3 25 -6 -7 -2 -9 -9 -6 -15 5 -8 2 -8 -7 1
-7 6 -20 12 -29 12 -14 0 34 -29 54 -33 5 -1 20 -11 34 -22 13 -11 29 -20 35
-20 7 -1 11 -6 9 -13 -1 -7 1 -11 5 -11 19 3 25 -2 14 -14 -8 -10 -7 -14 2
-14 7 0 14 11 15 24 1 14 -3 22 -11 20 -6 -1 -11 4 -9 12 2 9 -4 12 -18 8 -11
-3 -18 -1 -14 4 8 14 30 11 44 -6 7 -8 16 -12 21 -9 6 3 7 -8 4 -26 -5 -26 -3
-29 8 -18 8 7 12 20 10 28 -4 13 -4 13 5 0 6 -8 7 -19 2 -25 -5 -6 -2 -18 6
-29 8 -11 14 -15 14 -9 0 7 -5 15 -11 19 -8 5 -6 10 5 16 10 6 20 7 23 4 4 -3
1 -6 -6 -6 -9 0 -9 -5 -1 -20 6 -11 16 -17 22 -14 8 5 9 1 5 -9 -6 -16 -4 -16
21 0 26 17 27 17 12 -2 -8 -10 -10 -16 -3 -12 14 9 52 -21 49 -37 -2 -6 -1 -8
1 -3 8 13 23 7 23 -9 0 -8 5 -12 11 -8 8 4 8 9 0 17 -14 14 -14 27 0 27 5 0 7
-5 4 -10 -3 -6 1 -13 9 -16 9 -3 16 -10 16 -16 0 -5 -4 -6 -10 -3 -5 3 -10 1
-10 -4 0 -14 13 -14 28 1 16 16 16 -4 -1 -22 -6 -8 0 -4 15 9 16 14 31 21 35
18 3 -4 1 -7 -5 -7 -7 0 -12 -7 -12 -15 0 -8 -4 -15 -10 -15 -5 0 -10 -5 -10
-11 0 -8 5 -8 15 1 12 10 17 8 25 -11 10 -22 10 -22 6 -2 -4 22 19 40 29 22 4
-5 11 -6 17 -3 6 4 8 2 5 -3 -4 -6 2 -20 12 -32 22 -26 32 -27 25 -4 -5 16 -4
16 6 0 9 -14 15 -16 26 -6 10 8 14 8 14 0 0 -10 -12 -15 -31 -13 -3 1 -6 -6
-6 -13 0 -11 4 -12 13 -4 8 7 14 7 19 -1 10 -17 25 -11 18 7 -6 17 -6 17 10 1
23 -23 22 -26 -12 -24 -17 1 -27 -2 -24 -7 3 -5 14 -7 24 -4 10 3 21 1 24 -4
3 -4 13 -5 22 -2 11 4 14 3 9 -5 -4 -7 -2 -12 4 -12 7 0 10 6 7 13 -3 8 -1 20
4 28 7 12 9 12 9 0 0 -11 3 -11 17 0 11 10 14 10 9 2 -5 -9 0 -13 15 -13 19 0
20 2 8 17 -11 13 -11 15 -1 9 8 -5 21 -1 32 9 14 12 20 13 26 4 5 -8 3 -10 -6
-4 -9 6 -11 4 -5 -5 5 -8 4 -11 -3 -6 -6 3 -13 2 -16 -3 -7 -11 13 -9 32 2 7
5 10 13 7 18 -4 5 1 9 9 9 9 0 13 7 11 20 -4 19 -3 19 21 4 22 -15 24 -15 24
0 0 10 -4 15 -9 11 -5 -3 -12 -1 -15 4 -3 4 2 8 12 8 36 0 41 3 36 21 -4 10
-2 13 3 7 13 -16 40 -16 47 0 3 8 13 15 21 15 9 0 13 5 10 10 -3 6 -1 10 4 10
18 0 12 -17 -10 -32 -21 -13 -21 -14 -3 -28 18 -14 18 -14 4 4 -14 18 -13 19
3 13 11 -4 16 -3 12 3 -3 6 -1 10 4 10 6 0 11 8 11 18 1 15 2 15 15 -2 18 -24
20 -14 4 17 l-12 22 23 -20 23 -20 -11 21 c-11 21 -7 34 10 34 4 0 8 -5 8 -11
0 -5 -6 -7 -12 -3 -9 5 -9 2 1 -9 14 -18 22 -22 20 -9 -4 22 3 32 21 32 11 0
20 5 20 11 0 5 -5 7 -12 3 -7 -4 -8 -3 -4 5 4 6 12 9 17 6 5 -4 9 -2 9 4 0 5
16 8 35 7 19 -2 38 1 42 7 3 5 2 7 -3 4 -6 -3 -16 4 -24 16 -11 19 -11 20 1
11 11 -9 17 -9 26 1 6 7 9 16 5 20 -4 4 6 -1 23 -11 16 -10 26 -13 22 -6 -5 7
-3 12 3 12 6 0 8 5 5 10 -4 6 -1 9 7 8 7 -2 12 3 10 10 -1 8 2 11 8 7 8 -5 8
-11 0 -20 -8 -9 -8 -15 0 -20 5 -3 10 -5 11 -3 7 28 6 45 -4 58 -6 8 1 4 15
-9 15 -13 25 -28 21 -34 -3 -6 -1 -7 6 -3 8 5 6 15 -9 35 l-19 28 22 -1 c13
-1 21 4 19 12 -1 8 2 11 7 8 5 -3 14 1 21 9 7 8 17 15 22 15 6 0 0 -9 -13 -20
-27 -22 -14 -27 15 -5 15 11 23 12 33 3 7 -6 16 -8 20 -4 3 3 1 6 -6 6 -7 0
-9 5 -5 12 4 6 3 8 -4 4 -6 -3 -14 -1 -18 5 -5 8 -3 9 6 4 10 -6 12 -4 6 11
-6 16 -4 16 14 -3 28 -30 36 -29 16 2 -9 14 -12 25 -7 25 5 0 11 -5 13 -12 6
-16 45 -17 45 -2 0 7 -4 11 -9 8 -4 -3 -6 1 -3 8 3 7 19 21 36 30 16 10 27 13
23 7 -4 -8 1 -9 16 -4 18 6 22 4 17 -9 -3 -8 -2 -18 3 -21 4 -3 7 6 5 20 -3
29 12 33 32 7 13 -16 13 -15 4 4 -8 16 -6 24 9 36 10 9 21 14 24 11 2 -3 15 2
27 10 11 9 29 13 38 10 10 -3 12 -2 4 4 -15 11 -21 42 -8 42 6 0 9 -7 7 -15
-3 -12 1 -13 16 -5 13 7 23 7 32 -2 12 -10 12 -9 1 6 -7 9 -10 17 -6 17 4 0 2
6 -4 13 -8 10 -7 14 4 14 8 0 12 -4 9 -9 -3 -4 0 -8 6 -8 6 0 8 -5 4 -12 -4
-6 -3 -8 4 -4 6 3 9 18 6 31 -3 18 0 25 11 25 8 0 15 -5 15 -11 0 -5 -4 -8 -8
-5 -5 3 -9 -1 -9 -9 0 -20 7 -19 24 3 8 9 12 12 9 5 -4 -6 -3 -14 2 -17 4 -2
8 4 9 13 1 10 -8 23 -20 29 l-22 10 23 -1 c12 -1 22 -4 22 -8 0 -13 29 -18 36
-7 4 6 3 8 -3 5 -6 -4 -13 -1 -16 7 -7 18 22 14 34 -5 5 -9 9 -10 9 -2 0 6 -5
15 -10 18 -6 4 -9 14 -8 23 2 10 -3 16 -10 14 -8 -1 -11 2 -7 8 7 11 45 -9 45
-23 0 -4 -5 -5 -12 -1 -7 4 -8 3 -4 -5 9 -14 29 -4 23 12 -2 7 3 17 10 22 12
9 11 11 -6 11 -11 0 -17 -5 -14 -11 4 -5 2 -7 -2 -2 -10 8 -14 57 -4 51 4 -2
7 7 7 20 0 18 -5 23 -16 19 -10 -5 -13 -2 -8 6 5 7 14 10 21 7 7 -2 21 2 32
10 13 10 14 14 3 12 -8 -2 -14 3 -12 10 1 8 -2 11 -7 7 -6 -3 -9 -11 -7 -18 1
-7 1 -9 -1 -4 -3 4 -9 4 -15 1 -5 -4 -3 5 6 18 15 23 15 27 -4 50 l-20 26 26
17 c20 13 23 19 14 30 -8 10 -8 15 0 20 8 5 8 11 -1 21 -6 7 -16 11 -23 7 -8
-5 -8 -3 0 8 5 8 9 25 8 39 -1 14 2 31 6 39 4 8 7 -6 6 -31 -2 -28 2 -45 9
-45 6 0 12 6 12 14 0 7 -3 13 -7 13 -4 0 -6 17 -5 38 2 29 -3 42 -24 59 -14
12 -20 22 -13 23 6 0 12 -4 12 -10 0 -5 7 -10 15 -10 8 0 15 5 15 11 0 5 -5 7
-12 3 -8 -5 -9 -2 -5 9 3 10 2 17 -3 17 -6 0 -10 5 -10 11 0 6 10 8 23 5 12
-3 16 -3 9 0 -6 3 -10 10 -6 15 3 5 1 9 -5 9 -5 0 -7 12 -5 28 4 22 3 25 -7
15 -7 -7 -17 -13 -23 -13 -5 0 -2 6 8 13 16 12 16 14 2 26 -9 7 -13 17 -10 22
7 12 34 11 34 -1 0 -5 -7 -6 -17 -3 -23 9 -8 -14 20 -29 18 -9 20 -9 12 3 -12
17 -13 39 -1 58 6 9 5 12 -1 8 -6 -4 -14 0 -17 9 -3 8 -2 12 4 9 6 -3 10 -1
10 4 0 6 -6 11 -13 11 -7 0 -18 9 -25 20 -14 24 -7 26 14 5 9 -8 21 -15 27
-14 9 0 8 2 0 6 -7 2 -13 11 -13 18 0 7 -6 15 -12 18 -7 2 -5 3 4 2 10 -2 21
2 25 7 3 6 2 8 -4 5 -6 -4 -10 6 -11 24 -1 27 1 29 16 17 13 -9 12 -7 -2 10
-24 28 -24 28 -22 -7 1 -17 -2 -27 -6 -24 -5 2 -8 13 -6 22 2 10 -3 25 -11 34
-9 11 -10 17 -2 17 6 0 11 -5 11 -12 0 -9 3 -9 13 0 17 18 17 72 0 65 -9 -4
-11 0 -7 11 3 9 10 16 15 16 4 0 6 18 4 40 -3 30 -1 39 8 33 9 -5 9 -3 1 8
-13 17 -12 40 1 37 6 -2 9 -7 7 -11 -1 -5 2 -5 8 -2 8 5 5 13 -6 26 -21 23
-26 46 -13 55 5 3 9 0 9 -6 0 -6 5 -8 11 -5 6 5 3 13 -10 22 -13 8 -18 19 -14
26 9 15 12 147 3 147 -4 0 -6 -22 -5 -49 1 -44 0 -48 -19 -43 -15 4 -16 7 -5
11 12 5 17 24 9 34 -7 9 -7 38 1 43 5 3 7 9 4 14 -3 5 -1 11 5 15 5 3 10 2 10
-3 0 -5 7 -9 16 -9 14 0 14 2 -2 14 -10 8 -19 27 -20 43 -1 15 -9 36 -18 45
-9 9 -14 21 -11 25 3 5 -4 7 -15 5 -11 -2 -24 3 -29 12 -5 11 -17 14 -34 11
-17 -3 -24 -1 -20 5 4 6 0 8 -11 4 -10 -4 -15 -3 -11 3 3 6 1 10 -5 10 -6 0
-9 4 -5 9 8 15 -29 32 -43 20 -7 -5 -10 -6 -7 -2 3 3 -4 13 -15 20 -11 8 -18
19 -15 24 4 5 2 9 -4 9 -14 0 -9 -39 6 -44 7 -3 13 -10 13 -16 0 -6 -10 -2
-22 9 -11 11 -25 18 -30 15 -4 -3 -8 -1 -8 5 0 5 6 12 13 15 8 3 7 8 -6 16 -9
6 -15 16 -11 21 3 5 0 8 -8 7 -7 -2 -12 3 -10 10 1 8 -2 11 -8 7 -6 -3 -8 -11
-5 -16 10 -16 -4 -10 -25 11 -11 11 -15 20 -9 20 5 0 7 5 3 11 -5 8 -9 8 -14
-1 -11 -18 -30 -3 -23 18 5 14 3 15 -7 5 -16 -14 0 -38 31 -48 20 -7 27 -35 8
-35 -5 0 -7 5 -4 11 4 6 -2 13 -13 16 -11 3 -23 12 -26 20 -3 8 -11 11 -17 7
-15 -9 -30 17 -22 41 5 18 5 18 -11 2 -20 -19 -36 -22 -36 -6 0 5 -4 7 -10 4
-5 -3 -15 3 -22 15 -7 11 -18 20 -24 20 -6 0 -16 10 -23 23 -11 21 -11 21 -6
0 3 -12 2 -24 -2 -26 -5 -3 -9 2 -10 11 -1 9 -5 28 -9 42 -7 24 -6 24 12 10
18 -14 18 -14 5 2 -17 22 -34 12 -27 -16 5 -20 4 -20 -9 -2 -8 10 -12 23 -8
29 3 6 1 7 -5 4 -5 -4 -8 -16 -5 -26 6 -22 -12 -37 -23 -20 -4 8 -3 9 4 5 19
-11 14 13 -9 50 -11 19 -25 32 -30 28 -5 -3 -9 -7 -9 -10 0 -3 5 -2 10 1 6 3
10 1 10 -4 0 -6 -7 -11 -15 -11 -8 0 -15 6 -15 14 0 7 -7 20 -17 27 -15 13
-15 12 -4 -10 9 -15 10 -26 3 -33 -7 -7 -10 -4 -9 8 1 10 -4 19 -10 20 -7 1
-16 3 -20 4 -5 1 -12 2 -16 1 -5 -1 -6 3 -2 9 5 8 11 7 21 -1 8 -7 14 -7 14
-1 0 19 -34 24 -47 6 -19 -26 -16 -3 3 24 8 12 12 22 7 21 -4 -1 -11 0 -15 1
-5 1 -14 3 -20 4 -7 1 -12 10 -11 21 1 11 0 14 -3 8 -4 -10 -11 -10 -27 -1
-12 6 -24 12 -27 12 -3 1 -4 4 -3 9 6 17 -15 5 -26 -15 -11 -23 -11 -22 -8 4
3 20 0 25 -12 20 -9 -3 -19 -10 -23 -16 -5 -8 -8 -7 -8 1 0 7 8 17 18 23 15
10 15 11 0 6 -16 -5 -32 7 -40 29 -3 10 -7 11 -36 14 -7 0 -11 5 -8 9 7 12
-26 12 -40 0 -13 -10 -28 18 -18 33 3 5 0 8 -8 7 -7 -2 -12 3 -10 11 2 11 -3
10 -23 -3 -27 -18 -47 -14 -40 7 2 7 -10 23 -28 37 -18 13 -26 17 -18 7 8 -10
9 -17 3 -17 -6 0 -18 10 -27 23 l-17 22 7 -23z m-15 -42 c0 -5 -2 -10 -4 -10
-3 0 -8 5 -11 10 -3 6 -1 10 4 10 6 0 11 -4 11 -10z m40 6 c0 -3 -4 -8 -10
-11 -5 -3 -10 -1 -10 4 0 6 5 11 10 11 6 0 10 -2 10 -4z m34 -12 c5 -14 4 -15
-9 -4 -17 14 -19 20 -6 20 5 0 12 -7 15 -16z m81 -24 c4 -6 1 -9 -7 -8 -7 2
-12 -3 -10 -10 1 -8 -2 -11 -8 -7 -8 5 -7 11 1 21 14 17 16 17 24 4z m105 -53
c17 2 21 0 12 -6 -11 -7 -11 -9 2 -14 9 -4 16 -11 16 -17 0 -6 -10 -2 -22 9
-11 11 -25 18 -30 15 -4 -3 -11 2 -14 11 -5 13 -9 13 -23 3 -14 -12 -15 -11
-2 5 13 16 17 17 25 4 6 -8 22 -12 36 -10z m138 -83 c8 -2 22 -10 31 -18 10
-9 20 -13 23 -10 3 3 9 1 12 -4 3 -5 -1 -16 -10 -23 -12 -10 -15 -10 -12 2 2
9 -5 14 -20 13 -18 -1 -20 1 -11 12 8 10 8 14 1 14 -6 0 -16 -8 -22 -17 -10
-16 -10 -16 -8 2 2 11 -2 19 -8 18 -6 -1 -11 4 -11 12 0 8 5 11 11 7 6 -3 17
-7 24 -8z m-811 -46 c0 -13 -1 -17 -4 -10 -3 6 -10 9 -16 5 -7 -4 -6 1 2 10
17 21 17 21 18 -5z m1019 -80 c4 -7 3 -8 -4 -4 -7 4 -12 2 -12 -5 0 -7 -3 -10
-6 -6 -6 5 3 27 11 27 2 0 7 -5 11 -12z m-1276 -82 c0 -2 -7 -7 -16 -10 -8 -3
-12 -2 -9 4 6 10 25 14 25 6z m1484 -72 c3 -8 2 -12 -4 -9 -6 3 -10 10 -10 16
0 14 7 11 14 -7z m-1730 -55 c-3 -5 -10 -7 -15 -3 -5 3 -7 10 -3 15 3 5 10 7
15 3 5 -3 7 -10 3 -15z m1885 -3 c9 -11 9 -16 0 -22 -7 -4 -9 -3 -5 4 3 6 2
13 -4 17 -5 3 -10 -2 -10 -11 0 -10 -3 -15 -6 -11 -6 6 2 37 9 37 3 0 10 -6
16 -14z m126 -74 c-3 -3 -11 0 -18 7 -9 10 -8 11 6 5 10 -3 15 -9 12 -12z m-1
-28 c7 -19 2 -18 -19 6 -16 17 -16 20 -3 15 9 -4 19 -13 22 -21z m-2214 -5 c0
6 5 11 11 11 24 0 -10 -26 -37 -28 -22 -2 -25 0 -14 13 10 12 16 13 26 4 10
-8 14 -8 14 0z m2310 -24 c7 -8 16 -13 20 -10 4 2 16 -9 28 -25 13 -17 18 -31
12 -35 -6 -3 -10 -11 -10 -16 0 -6 4 -8 8 -5 5 3 9 -1 9 -9 0 -23 -13 -18 -25
10 -6 14 -8 24 -4 22 4 -1 8 3 9 8 0 6 -3 9 -9 7 -5 -1 -6 3 -2 9 5 9 2 10
-12 5 -10 -4 -15 -4 -11 0 4 4 0 16 -9 26 -12 13 -21 15 -30 7 -9 -7 -14 -6
-20 2 -4 8 -3 9 4 5 7 -4 12 -2 12 3 0 16 16 13 30 -4z m-2350 -25 c0 -5 -5
-10 -11 -10 -5 0 -7 5 -4 10 3 6 8 10 11 10 2 0 4 -4 4 -10z m2400 -180 c0 -5
-5 -10 -11 -10 -5 0 -7 5 -4 10 3 6 8 10 11 10 2 0 4 -4 4 -10z m-2446 -61
c-3 -5 -13 -8 -22 -8 -15 1 -15 2 1 6 15 4 16 7 5 21 -12 15 -11 16 4 3 10 -7
15 -17 12 -22z m2472 -6 c-3 -20 -22 -28 -31 -14 -4 7 1 8 12 4 15 -6 16 -4 6
9 -7 8 -10 18 -7 21 11 10 22 -2 20 -20z m-29 -53 c-3 -14 0 -20 11 -20 8 0
13 -3 9 -6 -13 -14 -35 5 -30 25 3 12 8 21 10 21 3 0 3 -9 0 -20z m28 11 c3
-5 2 -12 -3 -15 -5 -3 -9 1 -9 9 0 17 3 19 12 6z m-3 -74 c-5 -7 -8 -27 -7
-44 0 -18 -3 -33 -8 -33 -4 0 -7 8 -5 18 2 11 -4 27 -12 37 -8 11 -10 16 -3
12 6 -4 14 -3 18 3 3 5 0 10 -7 10 -10 0 -9 3 2 9 18 12 34 3 22 -12z m-2
-111 c0 -2 -7 -7 -16 -10 -8 -3 -12 -2 -9 4 6 10 25 14 25 6z m-2465 -55 c-2
-2 -11 3 -19 12 -8 8 -12 17 -9 21 3 3 12 -2 19 -12 7 -9 11 -19 9 -21z m-15
-30 c0 -6 -4 -12 -8 -15 -5 -3 -9 1 -9 9 0 8 4 15 9 15 4 0 8 -4 8 -9z m2480
-1 c0 -5 -7 -7 -15 -4 -8 4 -15 8 -15 10 0 2 7 4 15 4 8 0 15 -4 15 -10z
m-2464 -27 c-3 -19 -36 -32 -36 -14 0 6 7 8 15 4 9 -3 15 -2 14 3 -2 13 0 24
5 24 2 0 3 -8 2 -17z m-6 -39 c0 -8 -19 -13 -24 -6 -3 5 1 9 9 9 8 0 15 -2 15
-3z m-10 -148 c0 -8 -4 -17 -8 -20 -4 -2 -8 4 -8 15 0 10 4 19 8 19 4 0 8 -6
8 -14z m2475 4 c3 -6 -1 -7 -9 -4 -18 7 -21 14 -7 14 6 0 13 -4 16 -10z m-13
-107 c-6 -2 -10 -9 -7 -13 3 -5 1 -11 -4 -14 -7 -5 -8 11 -2 32 1 1 7 2 14 1
9 0 9 -2 -1 -6z m-2458 -129 c3 -9 2 -12 -5 -9 -13 9 -8 -27 6 -38 6 -5 4 -7
-5 -4 -9 2 -15 17 -16 35 -1 34 10 43 20 16z m2459 -2 c-21 -22 -26 -21 -17 2
3 9 12 16 20 16 11 0 10 -4 -3 -18z m-2451 -80 c-7 -2 -9 -9 -5 -15 4 -7 -1
-6 -10 2 -20 16 -13 33 10 24 11 -4 13 -8 5 -11z m2456 -46 c-7 -8 -15 -12
-17 -11 -5 6 10 25 20 25 5 0 4 -6 -3 -14z m9 -32 c-3 -3 -12 -4 -19 -1 -8 3
-5 6 6 6 11 1 17 -2 13 -5z m-18 -78 c9 -11 9 -16 -1 -22 -7 -4 -10 -4 -6 1 4
4 3 14 -3 22 -6 7 -9 13 -6 13 2 0 10 -6 16 -14z m-2459 -6 c0 -5 -2 -10 -4
-10 -3 0 -8 5 -11 10 -3 6 -1 10 4 10 6 0 11 -4 11 -10z m-12 -91 c-10 -7 -8
-9 7 -10 17 -1 17 -2 2 -6 -19 -5 -14 -24 6 -19 7 1 8 1 4 -2 -4 -2 -2 -11 5
-20 12 -14 11 -14 -9 -1 -13 8 -23 16 -24 19 -7 38 -4 58 8 53 12 -5 12 -7 1
-14z m106 -117 c3 -5 -1 -9 -9 -9 -8 0 -12 4 -9 9 3 4 7 8 9 8 2 0 6 -4 9 -8z
m2216 -76 c0 -3 -4 -8 -10 -11 -5 -3 -10 -1 -10 4 0 6 5 11 10 11 6 0 10 -2
10 -4z m-2014 -48 c3 -4 -1 -5 -10 -4 -8 1 -18 5 -22 8 -3 4 1 5 10 4 8 -1 18
-5 22 -8z m1909 3 c-9 -8 -36 -10 -30 -2 2 4 11 8 20 8 8 0 13 -3 10 -6z m44
6 c-2 -1 -12 -9 -22 -16 -15 -12 -17 -12 -11 3 3 9 13 16 22 16 8 0 13 -1 11
-3z m-92 -39 c2 6 9 12 15 12 7 0 7 -5 -1 -13 -6 -8 -26 -14 -43 -14 -18 0
-25 2 -15 4 9 3 17 10 17 16 0 7 5 6 11 -3 8 -11 12 -12 16 -2z m-1525 -183
c2 3 5 -2 5 -10 0 -19 -14 -10 -27 18 -10 20 -10 20 3 5 8 -10 16 -16 19 -13z
m1148 -25 c0 -5 -5 -10 -11 -10 -5 0 -7 5 -4 10 3 6 8 10 11 10 2 0 4 -4 4
-10z m-987 -75 c-3 -9 -8 -14 -10 -11 -3 3 -2 9 2 15 9 16 15 13 8 -4z m27 -5
c0 -5 -5 -10 -11 -10 -5 0 -7 5 -4 10 3 6 8 10 11 10 2 0 4 -4 4 -10z m65 -41
c11 -16 1 -19 -13 -3 -7 8 -8 14 -3 14 5 0 13 -5 16 -11z m658 -4 c-3 -9 -8
-14 -10 -11 -3 3 -2 9 2 15 9 16 15 13 8 -4z m-352 -188 c-10 -9 -11 -8 -5 6
3 10 9 15 12 12 3 -3 0 -11 -7 -18z"/>
<path d="M1466 2918 c6 -9 44 -6 44 3 0 4 -11 6 -24 5 -13 0 -22 -4 -20 -8z"/>
<path d="M1616 2875 c-3 -8 -3 -15 0 -15 3 0 12 7 20 15 13 13 13 15 1 15 -8
0 -17 -7 -21 -15z"/>
<path d="M1320 2840 c-9 -6 -10 -10 -3 -10 6 0 15 5 18 10 8 12 4 12 -15 0z"/>
<path d="M2010 2680 c0 -5 5 -10 11 -10 5 0 7 5 4 10 -3 6 -8 10 -11 10 -2 0
-4 -4 -4 -10z"/>
<path d="M1026 2658 c3 -4 9 -8 15 -8 5 0 9 4 9 8 0 5 -7 9 -15 9 -8 0 -12 -4
-9 -9z"/>
<path d="M853 2555 c0 -8 4 -12 9 -9 5 3 6 10 3 15 -9 13 -12 11 -12 -6z"/>
<path d="M2226 2535 c3 -8 9 -13 14 -10 4 2 12 -7 19 -22 6 -14 15 -23 18 -19
3 3 12 1 20 -5 8 -7 13 -8 13 -1 0 5 -7 13 -16 16 -8 3 -12 10 -9 16 3 6 -1 7
-9 4 -9 -3 -16 -1 -16 5 0 5 -9 15 -20 21 -16 9 -18 8 -14 -5z"/>
<path d="M770 2509 c0 -4 -9 -6 -20 -4 -11 2 -18 0 -15 -6 8 -12 -1 -12 -28 2
-19 9 -18 7 3 -10 17 -13 27 -16 32 -9 3 7 14 13 24 14 23 3 39 21 19 21 -8 0
-15 -4 -15 -8z"/>
<path d="M2345 2461 c-3 -5 -2 -12 3 -15 5 -3 9 1 9 9 0 17 -3 19 -12 6z"/>
<path d="M595 2420 c3 -5 8 -10 11 -10 2 0 4 5 4 10 0 6 -5 10 -11 10 -5 0 -7
-4 -4 -10z"/>
<path d="M520 2400 c-8 -5 -10 -10 -5 -10 6 0 17 5 25 10 8 5 11 10 5 10 -5 0
-17 -5 -25 -10z"/>
<path d="M540 2382 c0 -6 -8 -9 -17 -6 -15 5 -16 4 -3 -5 16 -11 40 3 27 16
-4 3 -7 1 -7 -5z"/>
<path d="M460 2360 c0 -5 5 -10 11 -10 5 0 7 5 4 10 -3 6 -8 10 -11 10 -2 0
-4 -4 -4 -10z"/>
<path d="M2635 2311 c-6 -11 13 -26 22 -17 4 3 1 6 -6 6 -7 0 -9 5 -6 10 3 6
4 10 1 10 -3 0 -7 -4 -11 -9z"/>
<path d="M260 2181 c0 -6 4 -13 10 -16 6 -3 7 1 4 9 -7 18 -14 21 -14 7z"/>
<path d="M260 2139 c0 -5 5 -7 10 -4 6 3 10 8 10 11 0 2 -4 4 -10 4 -5 0 -10
-5 -10 -11z"/>
<path d="M235 1781 c-3 -5 -2 -12 3 -15 5 -3 9 1 9 9 0 17 -3 19 -12 6z"/>
<path d="M235 1480 c3 -5 8 -10 11 -10 2 0 4 5 4 10 0 6 -5 10 -11 10 -5 0 -7
-4 -4 -10z"/>
<path d="M253 1333 c1 -26 12 -30 21 -7 3 8 2 13 -3 9 -5 -3 -11 1 -14 7 -3 7
-4 3 -4 -9z"/>
<path d="M240 1100 c-9 -6 -10 -10 -3 -10 6 0 15 5 18 10 8 12 4 12 -15 0z"/>
<path d="M2789 1043 c-13 -16 -12 -17 4 -4 16 13 21 21 13 21 -2 0 -10 -8 -17
-17z"/>
<path d="M253 1009 c-2 -19 11 -26 21 -10 3 5 0 14 -7 19 -10 8 -13 6 -14 -9z"/>
<path d="M2752 1021 c-9 -5 -7 -12 10 -27 13 -10 20 -15 16 -10 -4 5 -2 16 5
24 8 11 8 14 0 9 -6 -4 -13 -3 -15 3 -1 5 -9 6 -16 1z"/>
<path d="M249 923 c-12 -16 -12 -17 2 -6 9 7 20 9 24 5 5 -4 5 -1 1 6 -9 16
-11 15 -27 -5z"/>
<path d="M2769 883 c-13 -16 -12 -17 4 -4 9 7 17 15 17 17 0 8 -8 3 -21 -13z"/>
<path d="M2772 858 c-15 -15 -15 -28 -1 -28 5 0 8 4 5 9 -4 5 0 11 6 14 7 2
10 7 7 10 -3 4 -11 1 -17 -5z"/>
<path d="M350 706 c0 -2 7 -7 16 -10 8 -3 12 -2 9 4 -6 10 -25 14 -25 6z"/>
<path d="M500 658 c-1 -5 -3 -13 -4 -18 0 -6 -8 -15 -16 -20 -8 -5 -10 -10 -5
-10 21 0 37 18 32 36 -3 11 -6 16 -7 12z"/>
<path d="M554 599 c-3 -5 0 -8 8 -7 7 2 12 -2 11 -7 -1 -6 12 -11 28 -11 l30
-2 -23 16 c-28 20 -46 23 -54 11z"/>
<path d="M2358 549 c-10 -5 -15 -16 -11 -25 5 -13 7 -13 23 1 9 8 21 12 25 8
5 -5 3 0 -4 10 -7 9 -14 17 -15 17 0 0 -9 -5 -18 -11z m17 -9 c-3 -5 -12 -10
-18 -10 -7 0 -6 4 3 10 19 12 23 12 15 0z"/>
<path d="M653 525 c0 -8 4 -12 9 -9 5 3 6 10 3 15 -9 13 -12 11 -12 -6z"/>
<path d="M686 531 c-4 -5 -2 -12 4 -16 5 -3 10 -3 10 1 0 4 7 -1 15 -12 15
-19 15 -19 8 1 -6 18 -5 18 10 6 9 -7 14 -17 11 -22 -3 -5 2 -6 10 -3 8 3 16
-2 19 -13 4 -14 5 -15 6 -2 1 14 -42 52 -59 54 -3 0 -10 4 -17 8 -6 4 -14 3
-17 -2z"/>
<path d="M2219 443 c-13 -17 -13 -17 6 -3 11 8 22 16 24 17 2 2 0 3 -6 3 -6 0
-17 -8 -24 -17z"/>
<path d="M2175 440 c-4 -6 -11 -8 -16 -5 -15 10 -10 -1 7 -15 8 -8 14 -9 13
-4 -4 21 2 28 11 14 6 -9 10 -10 10 -3 0 16 -17 26 -25 13z"/>
<path d="M896 387 c3 -10 9 -15 12 -12 3 3 0 11 -7 18 -10 9 -11 8 -5 -6z"/>
<path d="M2036 361 c-4 -5 -2 -12 3 -15 5 -4 12 -2 15 3 4 5 2 12 -3 15 -5 4
-12 2 -15 -3z"/>
<path d="M1955 310 c-3 -5 -1 -10 4 -10 6 0 11 5 11 10 0 6 -2 10 -4 10 -3 0
-8 -4 -11 -10z"/>
<path d="M1727 185 c-15 -11 -16 -13 -2 -18 8 -4 14 -1 12 6 -1 7 6 11 16 9
20 -3 23 4 4 11 -7 3 -21 -1 -30 -8z"/>
<path d="M1310 181 c0 -5 7 -12 16 -15 14 -5 15 -4 4 9 -14 17 -20 19 -20 6z"/>
<path d="M1313 145 c0 -7 6 -11 14 -8 7 3 13 6 13 8 0 2 -6 5 -13 8 -8 3 -14
-1 -14 -8z"/>
<path d="M1351 124 c0 -11 3 -14 6 -6 3 7 2 16 -1 19 -3 4 -6 -2 -5 -13z"/>
<path d="M1514 83 c4 -4 16 -8 28 -10 28 -4 18 6 -12 12 -12 2 -20 1 -16 -2z"/>
<path d="M1450 61 c0 -6 4 -13 10 -16 6 -3 7 1 4 9 -7 18 -14 21 -14 7z"/>
</g>
</svg>
